<svg xmlns="http://www.w3.org/2000/svg" fill="currentColor" viewBox="0 0 48 48"><g fill-rule="evenodd"><path d="M23.977 43.816c10.93.004 19.82-8.835 19.834-19.723.015-10.958-8.823-19.855-19.737-19.868C13.084 4.212 4.196 13.05 4.19 23.996c-.005 10.943 8.853 19.816 19.786 19.82M24.627 0v1.842c.068.045.092.074.12.078.886.135.892.135 1.016-.725.05-.347.07-.698.109-1.115l1.268.103-.175 1.925.982.19L28.38.39l1.242.256-.388 1.909.967.27.63-1.857 1.208.404-.59 1.847.936.372.816-1.779 1.161.514-.776 1.791.898.46.985-1.686 1.112.637-.968 1.698.84.558 1.16-1.573 1.04.742-1.141 1.596.785.634 1.315-1.444c.325.288.628.56.956.852-.44.494-.854.96-1.293 1.451.257.209.502.408.791.645l1.376-1.215.858.935-1.443 1.33.628.784c.535-.383 1.04-.744 1.588-1.138l.759 1.026-1.578 1.169.557.838 1.69-.962.65 1.105-1.69.986.458.9 1.786-.78.524 1.165-1.78.81.366.939 1.848-.59.411 1.2-1.857.637.257.963c.631-.127 1.248-.25 1.909-.384l.276 1.232-1.9.435.15.992 1.93-.184.134 1.249c-.519.068-.99.18-1.46.179-.475-.002-.543.2-.45.587.032.138.039.284.066.487H48v1.258h-1.838c-.219 1.013-.22 1.018.702 1.146.346.048.694.069 1.1.108l-.117 1.267-1.926-.18-.173.988 1.907.432-.266 1.238-1.907-.386-.271.958 1.86.64-.402 1.203-1.845-.588-.379.937 1.778.806-.512 1.17-1.78-.778-.474.886 1.688.998-.638 1.106-1.695-.964-.56.834 1.575 1.169-.746 1.034-1.587-1.138-.64.773 1.442 1.33-.852.943-1.468-1.3-.711.713 1.295 1.46-.935.867-1.321-1.443-.792.62c.382.535.75 1.051 1.139 1.599l-1.036.75-1.152-1.573-.853.548.968 1.699-1.107.64-.986-1.682-.9.449c.262.605.511 1.182.777 1.793l-1.157.522-.818-1.775-.937.36.588 1.847-1.203.414-.63-1.856-.97.259.387 1.909-1.238.266-.432-1.9-.986.155.174 1.934-1.239.13c-.068-.5-.188-.967-.182-1.433.007-.504-.206-.573-.614-.474-.138.034-.282.042-.463.068V48h-1.257v-1.782c-.07-.056-.091-.088-.117-.092-.91-.149-.914-.149-1.035.755-.047.344-.07.69-.11 1.086l-1.26-.108.174-1.937-.99-.168-.421 1.9-1.25-.262.394-1.903-.968-.273-.63 1.855-1.21-.398.591-1.85-.935-.372-.815 1.778-1.167-.515.782-1.784-.895-.465-.995 1.687-1.104-.644.968-1.694-.846-.557-1.158 1.578-1.036-.744 1.134-1.596-.778-.635L8.39 42.3l-.956-.846 1.275-1.435-.758-.68-1.387 1.23-.862-.939 1.441-1.32-.625-.787-1.596 1.137-.752-1.03 1.577-1.162-.556-.844-1.69.965-.65-1.104 1.688-.987-.452-.902-1.789.78-.527-1.16 1.782-.817-.367-.935-1.848.59-.409-1.206 1.858-.63-.266-.97-1.9.392-.28-1.235 1.899-.435-.14-.992-1.931.184-.144-1.25c.53-.068 1.015-.174 1.501-.18.42-.005.5-.17.422-.526-.036-.169-.053-.342-.084-.554H0v-1.238h1.794c.059-.087.086-.111.09-.138.135-.885.135-.89-.724-1.015-.347-.051-.699-.07-1.117-.11l.104-1.267 1.926.175.19-.982-1.911-.434.256-1.24 1.91.388.271-.966-1.857-.63c.139-.416.268-.802.402-1.208l1.85.59.372-.934c-.596-.272-1.17-.536-1.78-.816l.514-1.16 1.794.775.458-.898c-.568-.33-1.103-.643-1.686-.984l.637-1.11c.565.32 1.114.634 1.697.966l.558-.84-1.57-1.16.74-1.037 1.6 1.14.63-.785-1.443-1.315.854-.952 1.459 1.298.642-.791L7.44 6.59l.935-.855 1.334 1.441.782-.629L9.352 4.96l1.027-.755 1.169 1.57.843-.544-.965-1.698 1.104-.648.988 1.689.9-.459-.78-1.785 1.164-.522.81 1.777.942-.364-.59-1.847 1.2-.412.637 1.856.964-.258L18.38.656 19.614.38l.436 1.9c.335-.05.655-.1.991-.153L20.857.198l1.25-.132c.068.52.18.99.179 1.46-.002.478.206.538.59.449.139-.033.284-.04.499-.07V0Z"/><path d="M24.007 42.662c10.226.057 18.533-8.31 18.662-18.383.133-10.427-8.33-18.8-18.434-18.914C13.8 5.247 5.411 13.728 5.331 23.86c-.082 10.372 8.41 18.878 18.676 18.803M5.177 24c0-10.384 8.44-18.795 18.855-18.79 10.407.004 18.802 8.447 18.793 18.904-.01 10.353-8.481 18.73-18.93 18.719C13.58 42.82 5.175 34.365 5.177 24"/><path d="m19.594 18.583.03.433c.655.087.667.078.594-.433zm.63-4.043h-.61c-.008.104-.02.18-.017.257.002.06.024.12.035.171.637.097.653.086.592-.428m-.603 3.425c.262-.071.456-.106.63-.186.035-.016.018-.285-.019-.296-.185-.058-.385-.07-.611-.102zm.727-1.025c-.093-.21-.119-.408-.214-.45-.142-.063-.332-.016-.536-.016l.022.466zm-.724-3.13c.665.104.71.068.57-.425h-.57Zm.02 2.281c.232-.053.426-.079.6-.152.038-.017.035-.282 0-.295-.188-.068-.393-.093-.61-.137-.02.155-.037.231-.038.308 0 .06.02.12.048.276m.018 3.973.616-.308c-.105-.098-.197-.256-.318-.283-.323-.072-.425.106-.298.591m-4.228.063c.784 0 1.567.01 2.35-.009.137-.002.27-.117.405-.18-.129-.058-.258-.163-.387-.165a319 319 0 0 0-4.75-.015c-.125 0-.248.115-.372.176.118.064.235.182.355.184.8.017 1.6.009 2.399.009m-2.745-3.283h5.483v-.455h-5.483zm5.487-1.481h-5.479v.611h5.48zm.006-2.246h-5.479v.617h5.48zm-.006 5.445h-5.479v.722h5.479Zm0-1.154h-5.47v.724h5.47zm3.87-.94h1.35v-.775h-1.342v-.902c.422 0 .82.023 1.212-.016.104-.01.263-.213.263-.327 0-.145-.13-.41-.216-.415-.616-.036-1.235-.019-1.86-.019v4.36h2.092v-.772h-1.5Zm-3.88-2.414h-5.457v1.117h5.456zm6.39-3.708c0 2.487-.002 4.925.002 7.363 0 .578.04 1.156.023 1.733-.011.356.105.474.464.47 1.188-.01 2.377.01 3.565.02.089 0 .178.01.403.026l-14.294 10.44v-3.973c-.794-.154-1.546-.274-2.286-.45-1.365-.322-2.664-.812-3.773-1.704-1.392-1.118-2.034-2.59-2.05-4.433h4.813v-7.02h1.633c.98 0 1.96.006 2.938-.006.259-.003.576.134.734-.246.023-.056.237-.043.363-.043.916-.004 1.831-.018 2.746.006.37.01.472-.122.457-.472-.024-.56-.006-1.12-.006-1.711z"/><path d="m38.265 26.957-.22-.018c-.135.17-.381.347-.374.511s.281.456.415.444c.184-.018.427-.242.487-.429.04-.123-.196-.335-.308-.508m.405-2.728.002-.205c-.171-.132-.359-.385-.509-.364-.19.027-.35.275-.523.428.15.157.287.423.452.442.18.02.385-.19.578-.301m-.572 2.557c.642.004 1.091-.416 1.082-1.012a1.075 1.075 0 0 0-1.053-1.035c-.557-.001-1.049.475-1.063 1.03-.016.56.445 1.013 1.034 1.017m-1.734-9.925c-1.136-.968-2.215-1.895-3.31-2.803-.074-.06-.301-.018-.4.055-.098.072-.204.272-.17.365.489 1.332 1.001 2.655 1.526 4.027l.513-.356-.344-.963.891-.6c.155.135.274.242.396.345.121.101.245.198.373.3zm-10.488.196c.116.377.169.712.318.997.307.581 1.126.706 1.622.293.531-.442.696-2.029-.276-2.456-.234-.103-.487-.183-.69-.331-.115-.085-.194-.285-.196-.434-.001-.096.165-.27.26-.274a.86.86 0 0 1 .506.157c.097.07.115.25.18.409.187-.015.366-.029.628-.048-.116-.349-.163-.64-.302-.878-.353-.607-1.272-.62-1.666-.047-.48.699-.216 1.725.541 2.09q.238.116.485.21c.296.109.413.344.309.607-.07.177-.302.432-.425.413-.206-.032-.4-.237-.564-.402-.077-.077-.075-.233-.117-.38zm8.002 2.977-4.09-5.834-.115.03v5.154h-4.61v-8.746h4.591l.095 1.72 3.338-2.478 6.546 9.137-1.28 1.004h3.033c-.702 1.506-1.843 2.494-3.11 3.334.176.208.402.371.465.583.06.2-.05.451-.09.699.96.795.96 1.526-.042 2.329.212.353.3.75-.111.993-.19.112-.552.116-.74.006-.401-.237-.375-.627-.113-.98-1.009-.868-1.009-1.53-.028-2.368l-.227-.784c-1.125.71-2.557.765-3.536 1.806-1.045 1.111-1.115 2.213-.093 3.355.349.39.76.725 1.177 1.118h-14.52zm-9.935 12.649c-.606-.044-1.526.609-1.46 1.045l.808-.268v1.662h.652zm9.302.692.116-.201c-.153-.138-.286-.32-.464-.405-.52-.249-1.27-.069-1.58.344-.318.424-.312 1.268.012 1.676.311.393 1.01.532 1.547.304.338-.143.552-.376.538-.768-.014-.397-.258-.632-.603-.714-.296-.07-.616-.041-.923-.056.082-.41.33-.546.683-.386.211.097.449.14.674.206m-4.986 1.107-.114.208c.156.14.292.324.474.41.508.244 1.276.057 1.578-.345.31-.414.306-1.28-.007-1.678-.31-.393-1.006-.536-1.544-.308-.334.142-.562.376-.551.763.01.388.254.635.598.72.295.073.617.04.925.055-.056.399-.316.558-.658.401-.223-.101-.467-.152-.701-.226m-2.756-.695c-.098.278-.33.602-.252.814.086.237.43.427.702.536.22.087.532.097.746.008.282-.118.622-.32.724-.573.08-.197-.165-.526-.265-.792.05-.17.228-.447.154-.61-.091-.203-.371-.37-.605-.447a1.3 1.3 0 0 0-.748-.005c-.236.074-.536.232-.618.432-.074.18.11.465.162.637m10.846-2.41v4.81H19.084c-.27-1.314-.82-2.463-2.339-2.924.816-.636 1.585-1.246 2.371-1.834.113-.084.306-.083.462-.083q8.16-.006 16.32-.002c.14 0 .28.02.451.033"/><path d="m15.643 32.985 1.429 1.442-2.15 1.673c-.199-.443-.365-.854-.564-1.25-.326-.647-.819-1.107-1.472-1.456-.486-.26-.849-.718-.876-1.33-.02-.464.012-.931-.027-1.394-.041-.494.039-.922.5-1.273l2.153 2.452 17.288-13.19.935 1.143c-5.74 4.394-11.458 8.774-17.216 13.183m.691 5.28c-.163-.23-.213-.292-.252-.358-.261-.437-.52-.876-.804-1.354q.543-.43 1.08-.85c.362-.283.725-.562 1.12-.866.228.41.453.776.633 1.162.047.103-.004.309-.085.4-.535.614-1.09 1.209-1.692 1.866"/><path d="M14.087 36.171h-2.054v-2.328c1.19.244 1.907 1.054 2.054 2.328M33.87 16.458l-.484-1.217.075-.061.987.86zm-7.564 17.458.462.465c-.13.127-.266.363-.388.356-.169-.01-.327-.203-.49-.317zm.034-.195-.369-.354c.124-.09.242-.24.372-.252.113-.01.24.14.36.218-.104.111-.207.223-.363.388m2.891.423c-.216-.298-.427-.462-.42-.615.008-.144.253-.392.382-.384.153.008.383.224.411.381.025.139-.18.32-.373.618m3.107.818c-.22-.305-.421-.468-.44-.648-.011-.117.226-.345.38-.374.262-.05.483.12.43.42-.028.162-.178.302-.37.602"/></g></svg>
