<svg xmlns="http://www.w3.org/2000/svg" viewBox="0 0 48 48" fill="currentColor"><path fill-rule="evenodd" d="M27 36.75h-2.25v-7.5l1.184-.592c.477-.239.86-.654 1-1.169a1.82 1.82 0 0 0-.94-2.117l-.494-.247V27l-.75.375v-3.75l1.184-.592c.477-.239.86-.654 1-1.169a1.82 1.82 0 0 0-.94-2.117L25.5 19.5v1.875l-.75.375V18l1.184-.592c.477-.239.86-.654 1-1.169a1.82 1.82 0 0 0-.94-2.117l-.494-.247v1.875l-.75.375V12.75l1.184-.592c.477-.239.86-.654 1-1.169a1.82 1.82 0 0 0-.94-2.117l-.869-.434-.375-.376a1.92 1.92 0 0 0-1.357-.562h-1.149a.648.648 0 0 0-.29 1.227L25.5 10.5l-3.434 1.717c-.477.238-.86.653-1 1.167-.236.867.18 1.739.94 2.12l.494.246v-1.875l.75-.375v3.375l-1.184.592c-.477.238-.86.653-1 1.167-.236.867.18 1.739.94 2.12L22.5 21v-1.875l.75-.375v3.75l-1.184.592c-.477.238-.86.653-1 1.167-.236.867.18 1.739.94 2.12l.494.246V24.75l.75-.375v3.75l-1.184.592c-.477.238-.86.653-1 1.167-.236.867.18 1.739.94 2.12l.494.246v-1.875l.75-.375v6.75H21l-.75.75v3l.75.75h6l.75-.75v-3zM22.5 36v-2.25H18c0 1.844-.398 3.376-2.25 3.69v3.81h3.75v-4.06L20.69 36zm7.5-2.25h-4.5V36h1.81l1.19 1.19v4.06h3.75v-3.81c-1.852-.314-2.25-1.846-2.25-3.69m6.938-1.687a.187.187 0 1 0-.376 0v.75a.188.188 0 0 0 .376 0zm0 3a.187.187 0 1 0-.376 0v.75a.188.188 0 0 0 .376 0zM30.75 27.75h11.477c.289 0 .523.22.523.49a.48.48 0 0 1-.234.41c-.67.416-2.728 1.619-5.477 2.52a.94.94 0 0 1 .648.893v.75a.94.94 0 0 1-.562.858v.533a.94.94 0 0 1 .562.859v.75a.938.938 0 0 1-1.874 0v-.75c0-.385.231-.715.562-.86v-.532a.94.94 0 0 1-.562-.858v-.75a.93.93 0 0 1 .201-.58c-1.608.45-3.402.767-5.264.767Zm-4.48 1.492-.77.385V33H30v-6h-2.253a2.6 2.6 0 0 1-.089.6c-.19.697-.696 1.296-1.388 1.642m5.943-7.427v-.75l-3.532 1.766a1.5 1.5 0 0 0-.829 1.342v.75l3.531-1.766a1.5 1.5 0 0 0 .83-1.342m1.677-3.354v-.75l-5.209 2.604a1.5 1.5 0 0 0-.829 1.342v.75l5.208-2.604a1.5 1.5 0 0 0 .83-1.342m3.018-4.025v-.75l-6.885 3.443a1.5 1.5 0 0 0-.83 1.342v.75l6.886-3.443a1.5 1.5 0 0 0 .83-1.342m1.341-3.186v-.75l-8.227 4.113a1.5 1.5 0 0 0-.83 1.342v.75l8.228-4.113a1.5 1.5 0 0 0 .829-1.342M19.319 22.831l-3.532-1.766v.75a1.5 1.5 0 0 0 .83 1.342l3.53 1.766v-.75a1.5 1.5 0 0 0-.828-1.342m-5.209-4.37a1.5 1.5 0 0 0 .83 1.342l5.208 2.604v-.75a1.5 1.5 0 0 0-.83-1.342l-5.208-2.604Zm3.867-1.332-6.885-3.443v.75a1.5 1.5 0 0 0 .829 1.342l6.885 3.443v-.75a1.5 1.5 0 0 0-.83-1.342m-7.397-4.537 8.227 4.113v-.75a1.5 1.5 0 0 0-.83-1.342L9.75 10.5v.75a1.5 1.5 0 0 0 .83 1.342M45 24c0-11.598-9.402-21-21-21S3 12.402 3 24s9.402 21 21 21 21-9.402 21-21m1.485.779q-.022.696-.088 1.384l1.471.412-.147 1.115-1.526.017q-.112.686-.268 1.363l1.4.598-.29 1.087-1.513-.182q-.203.663-.447 1.315l1.311.777-.43 1.039-1.477-.378q-.289.633-.615 1.245l1.2.942-.563.974-1.416-.568q-.368.588-.771 1.154l1.067 1.091-.685.893-1.33-.75q-.442.534-.918 1.042l.918 1.224-.795.795-1.224-.918q-.51.476-1.041.917l.749 1.331-.893.685-1.09-1.067q-.567.404-1.155.771l.568 1.416-.974.563-.942-1.2q-.612.326-1.245.615l.378 1.477-1.04.43-.776-1.311q-.652.244-1.315.447l.182 1.513-1.087.29-.598-1.4q-.677.156-1.363.269l-.017 1.525-1.115.147-.412-1.471q-.688.066-1.384.088L24.563 48h-1.125l-.217-1.515a23 23 0 0 1-1.384-.088l-.412 1.471-1.115-.147-.017-1.525a22 22 0 0 1-1.363-.269l-.598 1.4-1.087-.29.182-1.513q-.663-.202-1.315-.447l-.777 1.311-1.04-.43.38-1.477a23 23 0 0 1-1.246-.615l-.942 1.2-.974-.563.568-1.416a22 22 0 0 1-1.154-.771l-1.091 1.067-.893-.685.75-1.33q-.534-.443-1.042-.918l-1.224.918-.795-.795.918-1.224a23 23 0 0 1-.917-1.041l-1.331.749-.685-.893 1.067-1.09q-.404-.567-.772-1.155l-1.415.568-.563-.974 1.2-.942a23 23 0 0 1-.615-1.245l-1.477.378-.43-1.04 1.311-.776a22 22 0 0 1-.447-1.315l-1.513.182-.29-1.087 1.4-.598a22 22 0 0 1-.269-1.363L.28 27.69l-.147-1.115 1.471-.412q-.066-.688-.088-1.384L0 24.563v-1.125l1.515-.217q.022-.696.088-1.384l-1.471-.412.147-1.115 1.526-.017q.112-.686.268-1.363l-1.4-.598.29-1.087 1.513.182q.202-.663.447-1.315l-1.311-.777.43-1.04 1.477.38q.289-.634.615-1.246l-1.2-.942.563-.974 1.415.568q.369-.589.772-1.154L4.617 9.836l.685-.893 1.33.75q.443-.534.918-1.042l-.918-1.224.795-.795 1.224.918q.51-.476 1.041-.917l-.749-1.331.893-.685 1.09 1.067q.567-.404 1.155-.772l-.568-1.415.974-.563.942 1.2a23 23 0 0 1 1.245-.615l-.378-1.477 1.04-.43.776 1.311q.652-.244 1.315-.447L17.245.963l1.087-.29.598 1.4q.677-.155 1.363-.269L20.31.28l1.115-.147.412 1.471q.688-.066 1.384-.088L23.438 0h1.125l.216 1.515q.696.022 1.384.088l.412-1.471 1.115.147.017 1.525q.686.114 1.363.269l.598-1.4 1.087.29-.182 1.513q.663.203 1.315.447l.777-1.311 1.04.43-.38 1.477q.634.289 1.246.615l.942-1.2.974.563-.568 1.415q.588.369 1.154.772l1.091-1.067.893.685-.75 1.33q.534.443 1.042.918l1.224-.918.795.795-.918 1.224q.476.51.917 1.041l1.331-.749.685.893-1.067 1.09q.404.566.771 1.155l1.416-.568.563.974-1.2.942q.326.612.615 1.245l1.477-.378.43 1.04-1.311.776q.244.652.447 1.315l1.513-.182.29 1.087-1.4.598q.155.677.269 1.363l1.525.017.147 1.115-1.471.412q.066.688.088 1.384l1.515.217v1.125zm-5.61 2.22 1.299-.75-3-5.25-1.299.75zM36 27h1.5v-6.75H36zm-2.25 0h1.5v-6.75h-1.5zm-19.875-2.25H7.5v1.5h6.375zm0-2.25H7.5V24h6.375zm0-2.25H7.5v1.5h6.375ZM15.75 33l-9-4.5V27H22.5v.575l-.77.385c-.691.346-1.198.944-1.388 1.641a2.6 2.6 0 0 0 .137 1.748 2.58 2.58 0 0 0 1.192 1.239l.825.412z"/></svg>
