<svg xmlns="http://www.w3.org/2000/svg" fill="currentColor" viewBox="0 0 48 48"><path fill-rule="evenodd" d="M23.803 34.725c-5.306 0-9.605-4.402-9.605-9.83 0-5.431 4.3-9.831 9.605-9.831s9.606 4.4 9.606 9.831c0 5.428-4.3 9.83-9.606 9.83m0-20.482c-5.748 0-10.405 4.768-10.405 10.652 0 5.88 4.657 10.65 10.405 10.65s10.406-4.77 10.406-10.65c0-5.884-4.658-10.652-10.406-10.652"/><path d="M26.516 22.932c-.148.425-.177.85-.386 1.094-.207.243-.624.243-.86.274-.238.03-.53.125-.951-.304-.148-.153-.029-1.216 0-1.399.03-.182.297-.577.297-.577.15-.091.92-.121 1.158-.153.238-.03.534-.03.624.183.088.213.267.456.118.882m-4.157 1.246c-.149.122-.713.182-.98.243-.268.061-.476.091-.654.061s-.445-.334-.504-.516c-.06-.183-.15-.609-.209-.73-.059-.122.06-.821.06-.821.089-.122.742-.03.95-.06s.743-.123.862-.092c.118.03.593.091.593.73 0 .638.03 1.063-.118 1.185m7.277-2.857c-.15-.365-.862-1.277-1.1-1.642-.237-.365-.415-.182-.594-.213-.177-.03-.653.091-.861.152-.208.06-.713.213-1.158.365s-.654.213-.98.182c-.327-.03-.327-.03-.356-.304-.03-.273.118-1.671.148-1.854s.148-.365.208-.486c.06-.122.179-.244.237-.365.06-.122.09-.396-.03-.487a9 9 0 0 0-.86-.547c-.24-.122-.921-.243-1.218-.182-.298.06-.476.395-.535.578s-.089 3.617-.208 3.83c-.119.212-.535.395-.742.426-.208.03-.357-.03-.714-.03-.356 0-.385.15-.623.15s-.594-.09-.891-.181c-.297-.092-.208-.122-.534-.304-.327-.183-.95-.152-1.159.06 0 0-.238.335-.238.487s.208.243.327.668.594 1.095.713 1.338.505 1.338.624 1.672c.119.335.593 1.49.504 1.763-.089.274.06.578.268.67.208.09.327-.062.416-.245a1.24 1.24 0 0 1 .475-.486c.207-.12.535-.09.683-.09s.416-.213.416-.213c.033-.024.535-.092.742.303.208.396.26 6.598.297 6.749.06.244.18.274.327.152.149-.121.268-.486.327-1.034.059-.547.534-5.927.534-6.14.21-.061.98.03 1.188 0s.89.06 1.159.122c.267.06.564.242.801.242s.625-.06.743-.182c.12-.12.149-.212.179-.395.03-.182.029-.304.059-.82.029-.518.178-.7.356-1.004s.446-.517.743-.73.237-.364.385-.76c.15-.395.09-.85-.058-1.215M23.792 0c-8.393 0-10.14 8.242-9.663 8.919l3.81 5.407s.858-.86 2.814-1.366l-.581-4.54a1.45 1.45 0 0 1-1.17-1.433c0-.806.639-1.459 1.427-1.459.786 0 1.425.653 1.425 1.459 0 .506-.253.952-.635 1.214l.866 4.617c.66-.133 1.032-.22 1.817-.22.833 0 .888.098 1.581.244l1.102-4.701a1.47 1.47 0 0 1-.455-1.063c0-.806.639-1.459 1.426-1.459s1.426.653 1.426 1.459c0 .724-.516 1.32-1.19 1.435l-.977 4.476c1.887.51 3.05 1.337 3.05 1.337s3.203-4.794 3.59-5.407C33.84 8.306 32.185 0 23.792 0M8.308 44.86c6.982 5.814 13.886.168 13.937-.724l.405-7.139c.002 0-1.282.12-3.245-.814l-2.517 4.546a1.59 1.59 0 0 1 .024 2.001 1.506 1.506 0 0 1-2.15.228 1.59 1.59 0 0 1-.222-2.203 1.51 1.51 0 0 1 1.332-.57l2.333-4.807c-.638-.347-1.005-.53-1.658-1.075-.693-.576-.674-.697-1.154-1.298l-4.025 3.513a1.58 1.58 0 0 1-.325 1.198 1.505 1.505 0 0 1-2.151.226 1.59 1.59 0 0 1-.221-2.202 1.5 1.5 0 0 1 1.939-.369l3.773-3.411c-1.233-1.732-1.655-3.226-1.655-3.226s-5.834 1.404-6.561 1.647c-.727.242-4.841 8.664 2.141 14.479m29.784.993c-7.354 5.315-13.864-.8-13.856-1.694.007-.895.07-7.15.07-7.15s1.628.209 3.649-.586l1.852 4.71a1.59 1.59 0 0 0-.158 1.995 1.507 1.507 0 0 0 2.131.377 1.59 1.59 0 0 0 .368-2.181 1.52 1.52 0 0 0-1.29-.662l-2.008-4.958c.66-.303 1.036-.46 1.726-.957.73-.528 1.075-1.014 1.594-1.58l3.425 4.151c-.082.409-.01.85.245 1.217.487.706 1.44.875 2.13.376a1.59 1.59 0 0 0 .368-2.181 1.504 1.504 0 0 0-1.91-.503l-3.538-3.668c1.345-1.64 1.867-3.102 1.867-3.102s5.726 1.808 6.436 2.1 4.252 8.983-3.101 14.296M.72 16.113c-2.989 8.38 4.242 13.058 5.056 12.824l6.51-1.878s-.514-1.163-.3-3.296l-4.532-1.036c-.355.619-1.1.91-1.782.656-.768-.287-1.163-1.157-.883-1.943a1.47 1.47 0 0 1 1.898-.904c.484.181.818.592.93 1.068l4.709.779c.109-.707.157-1.11.437-1.893.297-.832.41-.852.796-1.491l-4.088-2.774a1.44 1.44 0 0 1-1.173.075c-.768-.288-1.163-1.158-.883-1.944a1.47 1.47 0 0 1 1.898-.903c.689.257 1.074 1.35.943 2.064l3.561 2.57c1.158-1.703 2.717-2.935 2.717-2.935s-3.427-4.905-3.874-5.509c-.446-.604-8.951-1.908-11.94 6.47m46.68 1.002c-2.742-8.861-11.645-8.12-12.144-7.405l-3.987 5.719s1.47 1.001 2.6 2.908l4.202-2.404c-.098-.74.31-1.458 1.003-1.682.78-.253 1.62.215 1.877 1.047.258.83-.165 1.71-.946 1.963a1.44 1.44 0 0 1-1.381-.29l-4.184 2.363c.344.655.55 1.02.807 1.849.272.879.196.968.28 1.746l4.908-.313a1.46 1.46 0 0 1 .88-.811c.778-.253 1.621.215 1.877 1.047.258.831-.166 1.71-.946 1.963-.7.227-1.445-.131-1.776-.807l-4.652.373c.124 2.152-.296 3.64-.296 3.64s5.685 1.877 6.404 2.093 8.215-4.138 5.474-13"/></svg>
