<svg xmlns="http://www.w3.org/2000/svg" fill="none" viewBox="0 0 64 64"><path d="M48.4 49.7a26.4 26.4 0 0 1-13-17.2c8.4-3.2 17.5-8 15.7-17 1.1 5.4-7.3 9.2-16.2 12l.1-1.8c1-11.3 7.6-30.2 14.5-16 2.8 5.4 6-5.5-2.8-8.9C32.4-4.5 29.4 17.1 30 29.1l-9.6 2.6-2-4C14.5 20.3 9.4 11.6 1 9A77.3 77.3 0 0 1 18 32.4l-.8.3C10.3 35.5 3.4 36.1.6 45.1c-2.8 9 4.6 15.7 8.7 18 5.5 3.5-2-5.5 1-15.7 1-3.4 4.8-6.6 10-9.3 1.6 4.7 3 11 1.6 15.3-1.4 4.1-5.4 6.7-7 10.4-.3.6 4-.5 4.2-.6 2-1 3.7-2.9 5-4.9 2.1-3.4 3.2-7.8 2.1-11.8-.8-3.3-2-6.5-3.4-9.7l1-.4c1.5-.7 3.9-1.4 6.5-2.3 0 .2 0 .4.2.6 2 7.9 19.2 34.3 32.6 22.1 5-4.6-12.4-5.9-14.8-7.1Z"/><style>path{fill:#000}@media(prefers-color-scheme:dark){path{fill:#FFF}}</style></svg>
