<?xml version="1.0" encoding="UTF-8"?><svg version="1.2" xmlns="http://www.w3.org/2000/svg" width="512" height="512" viewBox="0 0 512 512" baseProfile="tiny-ps"><title>Siam P&amp;W Technic Co., Ltd.</title><desc>Corporate logo of Siam P&amp;W Technic</desc><defs><style>.P300{fill:#ed2c3c;}.P185{fill:#0082c9;}</style></defs><g fill="#ffffff"><path class="P300" d="M174,178c27.17,0,50.03,20.26,50.03,45.39s-22.86,45.61-50.03,45.61c0,0-.1-91,.09-91"/><path class="P185" d="M225,178h56l36,127-9,30h-40l-24-90c.37-.76,20.13-36.12-17-60l-2-7Z"/><polygon class="P185" points="298 178 354 178 390 305 381 335 341 335 298 178"/><polygon class="P185" points="371 178 424 178 398.62 277 371 178"/><path class="P300" d="M424.71,362H92.27c-22.37,0-36.27-13.44-36.27-35.07v-142.49c0-22.85,11.56-34.44,34.37-34.44h327.73c31.32,0,37.9,16.94,37.9,31.14v144.37c0,24.21-10.53,36.5-31.29,36.5M90.07,161c-13.85,0-23.07,3.94-23.07,23.19v142.98c0,20.74,15.64,23.83,24.96,23.83h333.06c14.38,0,19.98-7.08,19.98-25.26v-144.86c0-9.82-3.16-19.88-26.59-19.88H90.07Z"/><rect class="P300" x="98" y="178" width="61" height="157"/></g></svg>
